<svg width="37" height="37" viewBox="0 0 37 37" fill="none" xmlns="http://www.w3.org/2000/svg">
<rect x="0.949707" y="0.699219" width="36" height="36" rx="18" fill="#0071E3"/>
<g opacity="0.8">
<path d="M26.4497 17.1992H20.5497V11.2992C20.5497 10.3992 19.8497 9.69922 18.9497 9.69922C18.0497 9.69922 17.4497 10.3992 17.4497 11.1992V17.0992H11.5497C10.6497 17.0992 9.94971 17.7992 9.94971 18.6992C9.94971 19.5992 10.6497 20.1992 11.4497 20.1992H17.3497V26.0992C17.3497 26.9992 18.0497 27.5992 18.8497 27.5992C19.7497 27.5992 20.3497 26.8992 20.3497 26.0992V20.1992H26.2497C27.1497 20.1992 27.7497 19.4992 27.7497 18.6992C27.9497 17.8992 27.2497 17.1992 26.4497 17.1992Z" fill="white"/>
</g>
</svg>
